<svg xmlns="http://www.w3.org/2000/svg" xmlns:xlink="http://www.w3.org/1999/xlink" width="500" zoomAndPan="magnify" viewBox="0 0 375 374.999991" height="500" preserveAspectRatio="xMidYMid meet" version="1.0"><defs><clipPath id="fccfb819ee"><path d="M 17.113281 11.765625 L 357.886719 11.765625 L 357.886719 363.191406 L 17.113281 363.191406 Z M 17.113281 11.765625 " clip-rule="nonzero"/></clipPath><clipPath id="431aa80657"><path d="M 46.363281 11.765625 L 328.636719 11.765625 C 344.792969 11.765625 357.886719 24.859375 357.886719 41.015625 L 357.886719 333.984375 C 357.886719 350.140625 344.792969 363.234375 328.636719 363.234375 L 46.363281 363.234375 C 30.207031 363.234375 17.113281 350.140625 17.113281 333.984375 L 17.113281 41.015625 C 17.113281 24.859375 30.207031 11.765625 46.363281 11.765625 Z M 46.363281 11.765625 " clip-rule="nonzero"/></clipPath><linearGradient x1="128" gradientTransform="matrix(1.331157, 0, 0, 1.331157, 17.111956, 11.76184)" y1="0.00187872" x2="128" gradientUnits="userSpaceOnUse" y2="264.001859" id="3f6df4bda6"><stop stop-opacity="1" stop-color="rgb(56.498718%, 37.298584%, 94.499207%)" offset="0"/><stop stop-opacity="1" stop-color="rgb(56.462097%, 37.249756%, 94.343567%)" offset="0.0078125"/><stop stop-opacity="1" stop-color="rgb(56.388855%, 37.150574%, 94.033813%)" offset="0.015625"/><stop stop-opacity="1" stop-color="rgb(56.315613%, 37.052917%, 93.725586%)" offset="0.0234375"/><stop stop-opacity="1" stop-color="rgb(56.242371%, 36.953735%, 93.415833%)" offset="0.03125"/><stop stop-opacity="1" stop-color="rgb(56.169128%, 36.856079%, 93.106079%)" offset="0.0390625"/><stop stop-opacity="1" stop-color="rgb(56.095886%, 36.756897%, 92.796326%)" offset="0.046875"/><stop stop-opacity="1" stop-color="rgb(56.021118%, 36.659241%, 92.488098%)" offset="0.0546875"/><stop stop-opacity="1" stop-color="rgb(55.947876%, 36.560059%, 92.178345%)" offset="0.0625"/><stop stop-opacity="1" stop-color="rgb(55.874634%, 36.462402%, 91.868591%)" offset="0.0703125"/><stop stop-opacity="1" stop-color="rgb(55.801392%, 36.36322%, 91.560364%)" offset="0.078125"/><stop stop-opacity="1" stop-color="rgb(55.728149%, 36.265564%, 91.25061%)" offset="0.0859375"/><stop stop-opacity="1" stop-color="rgb(55.654907%, 36.166382%, 90.940857%)" offset="0.09375"/><stop stop-opacity="1" stop-color="rgb(55.581665%, 36.068726%, 90.631104%)" offset="0.101562"/><stop stop-opacity="1" stop-color="rgb(55.508423%, 35.969543%, 90.322876%)" offset="0.109375"/><stop stop-opacity="1" stop-color="rgb(55.433655%, 35.871887%, 90.013123%)" offset="0.117188"/><stop stop-opacity="1" stop-color="rgb(55.360413%, 35.772705%, 89.703369%)" offset="0.125"/><stop stop-opacity="1" stop-color="rgb(55.28717%, 35.675049%, 89.395142%)" offset="0.132812"/><stop stop-opacity="1" stop-color="rgb(55.213928%, 35.575867%, 89.085388%)" offset="0.140625"/><stop stop-opacity="1" stop-color="rgb(55.140686%, 35.47821%, 88.775635%)" offset="0.148438"/><stop stop-opacity="1" stop-color="rgb(55.067444%, 35.379028%, 88.465881%)" offset="0.15625"/><stop stop-opacity="1" stop-color="rgb(54.994202%, 35.281372%, 88.157654%)" offset="0.164063"/><stop stop-opacity="1" stop-color="rgb(54.920959%, 35.18219%, 87.8479%)" offset="0.171875"/><stop stop-opacity="1" stop-color="rgb(54.846191%, 35.084534%, 87.538147%)" offset="0.179688"/><stop stop-opacity="1" stop-color="rgb(54.772949%, 34.985352%, 87.228394%)" offset="0.1875"/><stop stop-opacity="1" stop-color="rgb(54.699707%, 34.887695%, 86.920166%)" offset="0.195312"/><stop stop-opacity="1" stop-color="rgb(54.626465%, 34.788513%, 86.610413%)" offset="0.203125"/><stop stop-opacity="1" stop-color="rgb(54.553223%, 34.690857%, 86.300659%)" offset="0.210938"/><stop stop-opacity="1" stop-color="rgb(54.47998%, 34.591675%, 85.992432%)" offset="0.21875"/><stop stop-opacity="1" stop-color="rgb(54.406738%, 34.494019%, 85.682678%)" offset="0.226562"/><stop stop-opacity="1" stop-color="rgb(54.333496%, 34.394836%, 85.372925%)" offset="0.234375"/><stop stop-opacity="1" stop-color="rgb(54.260254%, 34.29718%, 85.063171%)" offset="0.242188"/><stop stop-opacity="1" stop-color="rgb(54.185486%, 34.197998%, 84.754944%)" offset="0.25"/><stop stop-opacity="1" stop-color="rgb(54.112244%, 34.100342%, 84.44519%)" offset="0.257812"/><stop stop-opacity="1" stop-color="rgb(54.039001%, 34.00116%, 84.135437%)" offset="0.265625"/><stop stop-opacity="1" stop-color="rgb(53.965759%, 33.903503%, 83.825684%)" offset="0.273437"/><stop stop-opacity="1" stop-color="rgb(53.892517%, 33.804321%, 83.517456%)" offset="0.28125"/><stop stop-opacity="1" stop-color="rgb(53.819275%, 33.706665%, 83.207703%)" offset="0.289063"/><stop stop-opacity="1" stop-color="rgb(53.746033%, 33.607483%, 82.897949%)" offset="0.296875"/><stop stop-opacity="1" stop-color="rgb(53.672791%, 33.509827%, 82.589722%)" offset="0.304688"/><stop stop-opacity="1" stop-color="rgb(53.598022%, 33.410645%, 82.279968%)" offset="0.3125"/><stop stop-opacity="1" stop-color="rgb(53.52478%, 33.312988%, 81.970215%)" offset="0.320313"/><stop stop-opacity="1" stop-color="rgb(53.451538%, 33.213806%, 81.660461%)" offset="0.328125"/><stop stop-opacity="1" stop-color="rgb(53.378296%, 33.11615%, 81.352234%)" offset="0.335938"/><stop stop-opacity="1" stop-color="rgb(53.305054%, 33.016968%, 81.04248%)" offset="0.34375"/><stop stop-opacity="1" stop-color="rgb(53.231812%, 32.919312%, 80.732727%)" offset="0.351562"/><stop stop-opacity="1" stop-color="rgb(53.158569%, 32.820129%, 80.422974%)" offset="0.359375"/><stop stop-opacity="1" stop-color="rgb(53.085327%, 32.722473%, 80.114746%)" offset="0.367188"/><stop stop-opacity="1" stop-color="rgb(53.010559%, 32.623291%, 79.804993%)" offset="0.375"/><stop stop-opacity="1" stop-color="rgb(52.937317%, 32.525635%, 79.495239%)" offset="0.382812"/><stop stop-opacity="1" stop-color="rgb(52.864075%, 32.426453%, 79.187012%)" offset="0.390625"/><stop stop-opacity="1" stop-color="rgb(52.790833%, 32.328796%, 78.877258%)" offset="0.398438"/><stop stop-opacity="1" stop-color="rgb(52.71759%, 32.229614%, 78.567505%)" offset="0.40625"/><stop stop-opacity="1" stop-color="rgb(52.644348%, 32.131958%, 78.257751%)" offset="0.414062"/><stop stop-opacity="1" stop-color="rgb(52.571106%, 32.032776%, 77.949524%)" offset="0.421875"/><stop stop-opacity="1" stop-color="rgb(52.497864%, 31.93512%, 77.639771%)" offset="0.429688"/><stop stop-opacity="1" stop-color="rgb(52.423096%, 31.835938%, 77.330017%)" offset="0.4375"/><stop stop-opacity="1" stop-color="rgb(52.349854%, 31.738281%, 77.02179%)" offset="0.445313"/><stop stop-opacity="1" stop-color="rgb(52.276611%, 31.639099%, 76.712036%)" offset="0.453125"/><stop stop-opacity="1" stop-color="rgb(52.203369%, 31.541443%, 76.402283%)" offset="0.460938"/><stop stop-opacity="1" stop-color="rgb(52.130127%, 31.442261%, 76.092529%)" offset="0.46875"/><stop stop-opacity="1" stop-color="rgb(52.056885%, 31.344604%, 75.784302%)" offset="0.476562"/><stop stop-opacity="1" stop-color="rgb(51.983643%, 31.245422%, 75.474548%)" offset="0.484375"/><stop stop-opacity="1" stop-color="rgb(51.9104%, 31.147766%, 75.164795%)" offset="0.492188"/><stop stop-opacity="1" stop-color="rgb(51.837158%, 31.048584%, 74.855042%)" offset="0.5"/><stop stop-opacity="1" stop-color="rgb(51.76239%, 30.950928%, 74.546814%)" offset="0.507812"/><stop stop-opacity="1" stop-color="rgb(51.689148%, 30.851746%, 74.237061%)" offset="0.515625"/><stop stop-opacity="1" stop-color="rgb(51.615906%, 30.754089%, 73.927307%)" offset="0.523438"/><stop stop-opacity="1" stop-color="rgb(51.542664%, 30.654907%, 73.61908%)" offset="0.53125"/><stop stop-opacity="1" stop-color="rgb(51.469421%, 30.557251%, 73.309326%)" offset="0.539062"/><stop stop-opacity="1" stop-color="rgb(51.396179%, 30.458069%, 72.999573%)" offset="0.546875"/><stop stop-opacity="1" stop-color="rgb(51.322937%, 30.360413%, 72.689819%)" offset="0.554688"/><stop stop-opacity="1" stop-color="rgb(51.249695%, 30.26123%, 72.381592%)" offset="0.5625"/><stop stop-opacity="1" stop-color="rgb(51.174927%, 30.163574%, 72.071838%)" offset="0.570312"/><stop stop-opacity="1" stop-color="rgb(51.101685%, 30.064392%, 71.762085%)" offset="0.578125"/><stop stop-opacity="1" stop-color="rgb(51.028442%, 29.966736%, 71.452332%)" offset="0.585938"/><stop stop-opacity="1" stop-color="rgb(50.9552%, 29.867554%, 71.144104%)" offset="0.59375"/><stop stop-opacity="1" stop-color="rgb(50.881958%, 29.769897%, 70.834351%)" offset="0.601562"/><stop stop-opacity="1" stop-color="rgb(50.808716%, 29.670715%, 70.524597%)" offset="0.609375"/><stop stop-opacity="1" stop-color="rgb(50.735474%, 29.573059%, 70.21637%)" offset="0.617188"/><stop stop-opacity="1" stop-color="rgb(50.662231%, 29.473877%, 69.906616%)" offset="0.625"/><stop stop-opacity="1" stop-color="rgb(50.587463%, 29.376221%, 69.596863%)" offset="0.632813"/><stop stop-opacity="1" stop-color="rgb(50.514221%, 29.277039%, 69.287109%)" offset="0.640625"/><stop stop-opacity="1" stop-color="rgb(50.440979%, 29.179382%, 68.978882%)" offset="0.648438"/><stop stop-opacity="1" stop-color="rgb(50.367737%, 29.0802%, 68.669128%)" offset="0.65625"/><stop stop-opacity="1" stop-color="rgb(50.294495%, 28.982544%, 68.359375%)" offset="0.664062"/><stop stop-opacity="1" stop-color="rgb(50.221252%, 28.883362%, 68.049622%)" offset="0.671875"/><stop stop-opacity="1" stop-color="rgb(50.14801%, 28.785706%, 67.741394%)" offset="0.679688"/><stop stop-opacity="1" stop-color="rgb(50.074768%, 28.686523%, 67.431641%)" offset="0.6875"/><stop stop-opacity="1" stop-color="rgb(50%, 28.588867%, 67.121887%)" offset="0.695313"/><stop stop-opacity="1" stop-color="rgb(49.926758%, 28.489685%, 66.81366%)" offset="0.703125"/><stop stop-opacity="1" stop-color="rgb(49.853516%, 28.392029%, 66.503906%)" offset="0.710938"/><stop stop-opacity="1" stop-color="rgb(49.780273%, 28.292847%, 66.194153%)" offset="0.71875"/><stop stop-opacity="1" stop-color="rgb(49.707031%, 28.19519%, 65.884399%)" offset="0.726562"/><stop stop-opacity="1" stop-color="rgb(49.633789%, 28.096008%, 65.576172%)" offset="0.734375"/><stop stop-opacity="1" stop-color="rgb(49.560547%, 27.998352%, 65.266418%)" offset="0.742188"/><stop stop-opacity="1" stop-color="rgb(49.487305%, 27.89917%, 64.956665%)" offset="0.75"/><stop stop-opacity="1" stop-color="rgb(49.412537%, 27.801514%, 64.646912%)" offset="0.757812"/><stop stop-opacity="1" stop-color="rgb(49.339294%, 27.702332%, 64.338684%)" offset="0.765625"/><stop stop-opacity="1" stop-color="rgb(49.266052%, 27.604675%, 64.028931%)" offset="0.773438"/><stop stop-opacity="1" stop-color="rgb(49.19281%, 27.505493%, 63.719177%)" offset="0.78125"/><stop stop-opacity="1" stop-color="rgb(49.119568%, 27.407837%, 63.41095%)" offset="0.789063"/><stop stop-opacity="1" stop-color="rgb(49.046326%, 27.308655%, 63.101196%)" offset="0.796875"/><stop stop-opacity="1" stop-color="rgb(48.973083%, 27.210999%, 62.791443%)" offset="0.804687"/><stop stop-opacity="1" stop-color="rgb(48.899841%, 27.111816%, 62.481689%)" offset="0.8125"/><stop stop-opacity="1" stop-color="rgb(48.826599%, 27.01416%, 62.173462%)" offset="0.820312"/><stop stop-opacity="1" stop-color="rgb(48.751831%, 26.914978%, 61.863708%)" offset="0.828125"/><stop stop-opacity="1" stop-color="rgb(48.678589%, 26.817322%, 61.553955%)" offset="0.835938"/><stop stop-opacity="1" stop-color="rgb(48.605347%, 26.71814%, 61.245728%)" offset="0.84375"/><stop stop-opacity="1" stop-color="rgb(48.532104%, 26.618958%, 60.935974%)" offset="0.851562"/><stop stop-opacity="1" stop-color="rgb(48.458862%, 26.521301%, 60.626221%)" offset="0.859375"/><stop stop-opacity="1" stop-color="rgb(48.38562%, 26.422119%, 60.316467%)" offset="0.867188"/><stop stop-opacity="1" stop-color="rgb(48.312378%, 26.324463%, 60.00824%)" offset="0.875"/><stop stop-opacity="1" stop-color="rgb(48.239136%, 26.225281%, 59.698486%)" offset="0.882812"/><stop stop-opacity="1" stop-color="rgb(48.164368%, 26.127625%, 59.388733%)" offset="0.890625"/><stop stop-opacity="1" stop-color="rgb(48.091125%, 26.028442%, 59.078979%)" offset="0.898438"/><stop stop-opacity="1" stop-color="rgb(48.017883%, 25.930786%, 58.770752%)" offset="0.90625"/><stop stop-opacity="1" stop-color="rgb(47.944641%, 25.831604%, 58.460999%)" offset="0.914062"/><stop stop-opacity="1" stop-color="rgb(47.871399%, 25.733948%, 58.151245%)" offset="0.921875"/><stop stop-opacity="1" stop-color="rgb(47.798157%, 25.634766%, 57.843018%)" offset="0.929688"/><stop stop-opacity="1" stop-color="rgb(47.724915%, 25.537109%, 57.533264%)" offset="0.9375"/><stop stop-opacity="1" stop-color="rgb(47.651672%, 25.437927%, 57.223511%)" offset="0.945313"/><stop stop-opacity="1" stop-color="rgb(47.576904%, 25.340271%, 56.913757%)" offset="0.953125"/><stop stop-opacity="1" stop-color="rgb(47.503662%, 25.241089%, 56.60553%)" offset="0.960937"/><stop stop-opacity="1" stop-color="rgb(47.43042%, 25.143433%, 56.295776%)" offset="0.96875"/><stop stop-opacity="1" stop-color="rgb(47.357178%, 25.04425%, 55.986023%)" offset="0.976562"/><stop stop-opacity="1" stop-color="rgb(47.283936%, 24.946594%, 55.67627%)" offset="0.984375"/><stop stop-opacity="1" stop-color="rgb(47.210693%, 24.847412%, 55.368042%)" offset="0.992188"/><stop stop-opacity="1" stop-color="rgb(47.137451%, 24.749756%, 55.058289%)" offset="1"/></linearGradient><clipPath id="ab729fbc16"><path d="M 17.113281 11.765625 L 357.613281 11.765625 L 357.613281 363.320312 L 17.113281 363.320312 Z M 17.113281 11.765625 " clip-rule="nonzero"/></clipPath><clipPath id="f4a72d0e1d"><path d="M 46.363281 11.765625 L 328.632812 11.765625 C 344.785156 11.765625 357.882812 24.863281 357.882812 41.015625 L 357.882812 333.980469 C 357.882812 350.136719 344.785156 363.230469 328.632812 363.230469 L 46.363281 363.230469 C 30.207031 363.230469 17.113281 350.136719 17.113281 333.980469 L 17.113281 41.015625 C 17.113281 24.863281 30.207031 11.765625 46.363281 11.765625 Z M 46.363281 11.765625 " clip-rule="nonzero"/></clipPath><clipPath id="30f50e42c3"><path d="M 75.875 45.753906 L 299.375 45.753906 L 299.375 326 L 75.875 326 Z M 75.875 45.753906 " clip-rule="nonzero"/></clipPath><clipPath id="febda7810c"><path d="M 247.191406 259.894531 L 340.191406 259.894531 L 340.191406 352.894531 L 247.191406 352.894531 Z M 247.191406 259.894531 " clip-rule="nonzero"/></clipPath><clipPath id="a501c45a27"><path d="M 45.6875 43.683594 L 55.246094 43.683594 L 55.246094 104.058594 L 45.6875 104.058594 Z M 45.6875 43.683594 " clip-rule="nonzero"/></clipPath><clipPath id="a8d92dad1c"><path d="M 55.246094 48.464844 L 55.246094 99.265625 C 55.246094 101.90625 53.105469 104.042969 50.464844 104.042969 C 47.824219 104.042969 45.6875 101.90625 45.6875 99.265625 L 45.6875 48.464844 C 45.6875 45.824219 47.824219 43.683594 50.464844 43.683594 C 53.105469 43.683594 55.246094 45.824219 55.246094 48.464844 Z M 55.246094 48.464844 " clip-rule="nonzero"/></clipPath><clipPath id="93360c1042"><path d="M 45.695312 43.683594 L 106.070312 43.683594 L 106.070312 53.242188 L 45.695312 53.242188 Z M 45.695312 43.683594 " clip-rule="nonzero"/></clipPath><clipPath id="c5a6b0bece"><path d="M 50.472656 43.683594 L 101.277344 43.683594 C 103.914062 43.683594 106.054688 45.824219 106.054688 48.460938 C 106.054688 51.101562 103.914062 53.242188 101.277344 53.242188 L 50.472656 53.242188 C 47.835938 53.242188 45.695312 51.101562 45.695312 48.460938 C 45.695312 45.824219 47.835938 43.683594 50.472656 43.683594 Z M 50.472656 43.683594 " clip-rule="nonzero"/></clipPath></defs><g clip-path="url(#fccfb819ee)"><g clip-path="url(#431aa80657)"><path fill="url(#3f6df4bda6)" d="M 17.113281 11.765625 L 17.113281 363.191406 L 357.886719 363.191406 L 357.886719 11.765625 Z M 17.113281 11.765625 " fill-rule="nonzero"/></g></g><g clip-path="url(#ab729fbc16)"><g clip-path="url(#f4a72d0e1d)"><path stroke-linecap="butt" transform="matrix(0.75, 0, 0, 0.75, 17.111955, 11.766453)" fill="none" stroke-linejoin="miter" d="M 39.001771 -0.00110377 L 415.361171 -0.00110377 C 436.897631 -0.00110377 454.361174 17.462439 454.361174 38.998899 L 454.361174 429.618716 C 454.361174 451.160384 436.897631 468.618719 415.361171 468.618719 L 39.001771 468.618719 C 17.460103 468.618719 0.00176879 451.160384 0.00176879 429.618716 L 0.00176879 38.998899 C 0.00176879 17.462439 17.460103 -0.00110377 39.001771 -0.00110377 Z M 39.001771 -0.00110377 " stroke="#000000" stroke-width="4" stroke-opacity="1" stroke-miterlimit="4"/></g></g><g clip-path="url(#30f50e42c3)"><path fill="#fdc190" d="M 299.035156 188.6875 C 299.035156 172.730469 290.832031 159.128906 279.289062 153.820312 L 279.289062 125.75 C 279.289062 81.578125 243.476562 45.777344 199.316406 45.777344 L 177.152344 45.777344 C 132.980469 45.777344 97.179688 81.585938 97.179688 125.75 L 97.179688 153.191406 C 84.878906 157.980469 75.964844 172.058594 75.964844 188.679688 C 75.964844 206.417969 86.109375 221.261719 99.695312 225.007812 C 109.125 259.507812 137.601562 292.589844 159.65625 314.128906 C 175.125 329.234375 200.476562 329.234375 215.9375 314.128906 C 238.035156 292.546875 266.578125 259.386719 275.949219 224.816406 C 289.207031 220.792969 299.035156 206.140625 299.035156 188.6875 Z M 299.035156 188.6875 " fill-opacity="1" fill-rule="nonzero"/></g><path fill="#ffd815" d="M 283.214844 327.960938 C 277.382812 329.332031 276.269531 330.445312 274.894531 336.28125 C 273.523438 330.445312 272.410156 329.332031 266.574219 327.960938 C 272.410156 326.589844 273.523438 325.476562 274.894531 319.640625 C 276.269531 325.476562 277.378906 326.589844 283.214844 327.960938 Z M 283.214844 327.960938 " fill-opacity="1" fill-rule="nonzero"/><g clip-path="url(#febda7810c)"><path fill="#ffd815" d="M 340.183594 306.386719 C 297.1875 308.320312 295.621094 309.886719 293.6875 352.882812 C 291.753906 309.886719 290.1875 308.320312 247.191406 306.386719 C 290.1875 304.457031 291.753906 302.890625 293.6875 259.894531 C 295.621094 302.890625 297.1875 304.457031 340.183594 306.386719 Z M 340.183594 306.386719 " fill-opacity="1" fill-rule="nonzero"/></g><path fill="#ffd815" d="M 283.191406 281.832031 C 273.585938 282.261719 273.238281 282.613281 272.804688 292.214844 C 272.375 282.613281 272.023438 282.261719 262.421875 281.832031 C 272.023438 281.398438 272.375 281.050781 272.804688 271.449219 C 273.238281 281.050781 273.585938 281.398438 283.191406 281.832031 Z M 283.191406 281.832031 " fill-opacity="1" fill-rule="nonzero"/><path fill="#ffd815" d="M 335.328125 280.953125 C 321.226562 281.585938 320.714844 282.097656 320.078125 296.199219 C 319.445312 282.097656 318.929688 281.585938 304.832031 280.953125 C 318.929688 280.316406 319.445312 279.804688 320.078125 265.703125 C 320.714844 279.804688 321.226562 280.316406 335.328125 280.953125 Z M 335.328125 280.953125 " fill-opacity="1" fill-rule="nonzero"/><path fill="#ffd815" d="M 335.328125 270.566406 C 331.488281 270.742188 331.347656 270.878906 331.175781 274.722656 C 331 270.878906 330.863281 270.742188 327.019531 270.566406 C 330.863281 270.394531 331 270.253906 331.175781 266.414062 C 331.347656 270.253906 331.488281 270.394531 335.328125 270.566406 Z M 335.328125 270.566406 " fill-opacity="1" fill-rule="nonzero"/><path fill="#ffd815" d="M 311.371094 265.703125 C 307.53125 265.875 307.390625 266.015625 307.21875 269.855469 C 307.046875 266.015625 306.90625 265.875 303.066406 265.703125 C 306.90625 265.53125 307.046875 265.390625 307.21875 261.550781 C 307.390625 265.390625 307.53125 265.53125 311.371094 265.703125 Z M 311.371094 265.703125 " fill-opacity="1" fill-rule="nonzero"/><g clip-path="url(#a501c45a27)"><g clip-path="url(#a8d92dad1c)"><path fill="#ffffff" d="M 55.246094 43.683594 L 55.246094 104.058594 L 45.6875 104.058594 L 45.6875 43.683594 Z M 55.246094 43.683594 " fill-opacity="1" fill-rule="nonzero"/></g></g><g clip-path="url(#93360c1042)"><g clip-path="url(#c5a6b0bece)"><path fill="#ffffff" d="M 45.695312 43.683594 L 106.070312 43.683594 L 106.070312 53.242188 L 45.695312 53.242188 Z M 45.695312 43.683594 " fill-opacity="1" fill-rule="nonzero"/></g></g></svg>