<svg xmlns="http://www.w3.org/2000/svg" xmlns:xlink="http://www.w3.org/1999/xlink" width="500" zoomAndPan="magnify" viewBox="0 0 375 374.999991" height="500" preserveAspectRatio="xMidYMid meet" version="1.0"><defs><g/><clipPath id="a9da07f938"><path d="M 285.722656 164 L 310.511719 164 L 310.511719 235 L 285.722656 235 Z M 285.722656 164 " clip-rule="nonzero"/></clipPath><clipPath id="e05ab7a8e1"><path d="M 89.378906 22.691406 L 294.898438 22.691406 L 294.898438 315.933594 L 89.378906 315.933594 Z M 89.378906 22.691406 " clip-rule="nonzero"/></clipPath><clipPath id="bbe2519fb8"><path d="M 42.3125 14 L 106.0625 14 L 106.0625 77.75 L 42.3125 77.75 Z M 42.3125 14 " clip-rule="nonzero"/></clipPath><clipPath id="189f7fd11b"><path d="M 287.9375 75.464844 L 326.1875 75.464844 L 326.1875 113.714844 L 287.9375 113.714844 Z M 287.9375 75.464844 " clip-rule="nonzero"/></clipPath><clipPath id="41f9c3cd2d"><path d="M 64.039062 250.367188 L 112.789062 250.367188 L 112.789062 299.117188 L 64.039062 299.117188 Z M 64.039062 250.367188 " clip-rule="nonzero"/></clipPath></defs><g clip-path="url(#a9da07f938)"><path fill="#f48a42" d="M 287.683594 171.980469 C 321.003906 143.003906 310.25 201.679688 302.398438 216.957031 C 299.507812 222.574219 293.160156 233.632812 285.886719 234.96875 L 287.683594 171.980469 " fill-opacity="1" fill-rule="nonzero"/></g><path fill="#f48a42" d="M 97.523438 171.980469 C 64.207031 143.003906 74.964844 201.679688 82.824219 216.957031 C 85.703125 222.574219 93.164062 234.738281 100.441406 236.066406 L 97.523438 171.980469 " fill-opacity="1" fill-rule="nonzero"/><g clip-path="url(#e05ab7a8e1)"><path fill="#fcac6b" d="M 294.265625 187.398438 C 294.265625 149.011719 296.382812 88.078125 279.855469 62.699219 C 260.632812 33.171875 224.058594 22.699219 192.601562 22.691406 C 161.148438 22.699219 124.574219 33.171875 105.355469 62.699219 C 88.828125 88.078125 88.351562 149.097656 90.941406 187.398438 C 94.246094 236.273438 110.6875 269.832031 147.996094 300.121094 C 159 309.054688 178.207031 315.699219 192.601562 315.933594 C 207 315.699219 226.21875 309.054688 237.21875 300.121094 C 274.527344 269.832031 294.265625 236.273438 294.265625 187.398438 " fill-opacity="1" fill-rule="nonzero"/></g><path fill="#fdc190" d="M 286.980469 192.203125 C 286.980469 156.558594 288.953125 99.96875 273.589844 76.40625 C 255.746094 48.972656 221.78125 39.25 192.5625 39.242188 C 163.351562 39.25 129.390625 48.972656 111.539062 76.40625 C 96.191406 99.96875 95.746094 156.636719 98.152344 192.203125 C 101.222656 237.59375 116.488281 268.761719 151.140625 296.890625 C 161.359375 305.183594 179.199219 311.355469 192.5625 311.574219 C 205.9375 311.355469 223.777344 305.183594 234.003906 296.890625 C 268.652344 268.761719 286.980469 237.59375 286.980469 192.203125 " fill-opacity="1" fill-rule="nonzero"/><path fill="#ffd815" d="M 67.003906 60.660156 C 63.007812 61.601562 62.242188 62.363281 61.300781 66.363281 C 60.363281 62.363281 59.597656 61.601562 55.597656 60.660156 C 59.597656 59.71875 60.363281 58.957031 61.300781 54.957031 C 62.242188 58.957031 63.003906 59.71875 67.003906 60.660156 Z M 67.003906 60.660156 " fill-opacity="1" fill-rule="nonzero"/><g clip-path="url(#bbe2519fb8)"><path fill="#ffd815" d="M 106.054688 45.871094 C 76.582031 47.195312 75.507812 48.269531 74.183594 77.742188 C 72.859375 48.269531 71.785156 47.195312 42.3125 45.871094 C 71.785156 44.546875 72.859375 43.472656 74.183594 14 C 75.507812 43.472656 76.582031 44.546875 106.054688 45.871094 Z M 106.054688 45.871094 " fill-opacity="1" fill-rule="nonzero"/></g><path fill="#ffd815" d="M 66.988281 29.039062 C 60.40625 29.335938 60.164062 29.574219 59.871094 36.15625 C 59.574219 29.574219 59.335938 29.335938 52.753906 29.039062 C 59.335938 28.742188 59.574219 28.503906 59.871094 21.921875 C 60.164062 28.503906 60.40625 28.742188 66.988281 29.039062 Z M 66.988281 29.039062 " fill-opacity="1" fill-rule="nonzero"/><path fill="#ffd815" d="M 102.726562 28.4375 C 93.0625 28.871094 92.710938 29.222656 92.273438 38.886719 C 91.839844 29.222656 91.488281 28.871094 81.824219 28.4375 C 91.488281 28 91.839844 27.648438 92.273438 17.984375 C 92.710938 27.648438 93.0625 28 102.726562 28.4375 Z M 102.726562 28.4375 " fill-opacity="1" fill-rule="nonzero"/><path fill="#ffd815" d="M 102.726562 21.316406 C 100.09375 21.4375 100 21.53125 99.878906 24.164062 C 99.761719 21.53125 99.664062 21.4375 97.03125 21.316406 C 99.664062 21.199219 99.761719 21.105469 99.878906 18.472656 C 100 21.105469 100.09375 21.199219 102.726562 21.316406 Z M 102.726562 21.316406 " fill-opacity="1" fill-rule="nonzero"/><path fill="#ffd815" d="M 86.308594 17.984375 C 83.675781 18.101562 83.578125 18.199219 83.460938 20.832031 C 83.339844 18.199219 83.246094 18.101562 80.613281 17.984375 C 83.246094 17.867188 83.339844 17.769531 83.460938 15.136719 C 83.578125 17.769531 83.675781 17.863281 86.308594 17.984375 Z M 86.308594 17.984375 " fill-opacity="1" fill-rule="nonzero"/><path fill="#ffd815" d="M 302.753906 103.460938 C 300.351562 104.027344 299.894531 104.484375 299.332031 106.882812 C 298.765625 104.484375 298.308594 104.027344 295.910156 103.460938 C 298.308594 102.898438 298.765625 102.441406 299.332031 100.039062 C 299.894531 102.441406 300.351562 102.898438 302.753906 103.460938 Z M 302.753906 103.460938 " fill-opacity="1" fill-rule="nonzero"/><g clip-path="url(#189f7fd11b)"><path fill="#ffd815" d="M 326.183594 94.589844 C 308.5 95.382812 307.855469 96.027344 307.058594 113.710938 C 306.265625 96.027344 305.621094 95.382812 287.9375 94.589844 C 305.621094 93.792969 306.265625 93.148438 307.058594 75.464844 C 307.855469 93.148438 308.5 93.792969 326.183594 94.589844 Z M 326.183594 94.589844 " fill-opacity="1" fill-rule="nonzero"/></g><path fill="#ffd815" d="M 302.742188 84.488281 C 298.792969 84.667969 298.648438 84.8125 298.472656 88.757812 C 298.292969 84.808594 298.148438 84.667969 294.199219 84.488281 C 298.148438 84.3125 298.292969 84.167969 298.472656 80.21875 C 298.648438 84.167969 298.792969 84.3125 302.742188 84.488281 Z M 302.742188 84.488281 " fill-opacity="1" fill-rule="nonzero"/><path fill="#ffd815" d="M 324.183594 84.128906 C 318.386719 84.386719 318.175781 84.597656 317.914062 90.398438 C 317.652344 84.597656 317.441406 84.386719 311.640625 84.128906 C 317.441406 83.867188 317.652344 83.65625 317.914062 77.855469 C 318.175781 83.65625 318.386719 83.867188 324.183594 84.128906 Z M 324.183594 84.128906 " fill-opacity="1" fill-rule="nonzero"/><path fill="#ffd815" d="M 324.183594 79.855469 C 322.605469 79.925781 322.546875 79.984375 322.476562 81.566406 C 322.40625 79.984375 322.347656 79.925781 320.769531 79.855469 C 322.347656 79.785156 322.40625 79.726562 322.476562 78.148438 C 322.546875 79.726562 322.605469 79.785156 324.183594 79.855469 Z M 324.183594 79.855469 " fill-opacity="1" fill-rule="nonzero"/><path fill="#ffd815" d="M 314.332031 77.855469 C 312.753906 77.925781 312.695312 77.984375 312.625 79.5625 C 312.554688 77.984375 312.496094 77.925781 310.917969 77.855469 C 312.496094 77.785156 312.554688 77.726562 312.625 76.148438 C 312.695312 77.726562 312.753906 77.785156 314.332031 77.855469 Z M 314.332031 77.855469 " fill-opacity="1" fill-rule="nonzero"/><path fill="#ffd815" d="M 82.917969 286.046875 C 79.863281 286.769531 79.277344 287.351562 78.558594 290.410156 C 77.839844 287.351562 77.257812 286.769531 74.199219 286.046875 C 77.257812 285.328125 77.839844 284.746094 78.558594 281.6875 C 79.277344 284.746094 79.863281 285.328125 82.917969 286.046875 Z M 82.917969 286.046875 " fill-opacity="1" fill-rule="nonzero"/><g clip-path="url(#41f9c3cd2d)"><path fill="#ffd815" d="M 112.78125 274.742188 C 90.242188 275.753906 89.421875 276.574219 88.410156 299.113281 C 87.394531 276.574219 86.574219 275.753906 64.039062 274.742188 C 86.574219 273.726562 87.394531 272.90625 88.410156 250.367188 C 89.421875 272.90625 90.242188 273.726562 112.78125 274.742188 Z M 112.78125 274.742188 " fill-opacity="1" fill-rule="nonzero"/></g><path fill="#ffd815" d="M 82.90625 261.867188 C 77.875 262.09375 77.691406 262.277344 77.464844 267.3125 C 77.238281 262.277344 77.054688 262.09375 72.019531 261.867188 C 77.054688 261.640625 77.238281 261.457031 77.464844 256.425781 C 77.691406 261.457031 77.875 261.640625 82.90625 261.867188 Z M 82.90625 261.867188 " fill-opacity="1" fill-rule="nonzero"/><path fill="#ffd815" d="M 110.238281 261.40625 C 102.84375 261.738281 102.574219 262.007812 102.242188 269.398438 C 101.910156 262.007812 101.640625 261.738281 94.25 261.40625 C 101.640625 261.074219 101.910156 260.804688 102.242188 253.414062 C 102.574219 260.804688 102.84375 261.074219 110.238281 261.40625 Z M 110.238281 261.40625 " fill-opacity="1" fill-rule="nonzero"/><path fill="#ffd815" d="M 110.238281 255.964844 C 108.222656 256.054688 108.148438 256.128906 108.058594 258.140625 C 107.96875 256.128906 107.894531 256.054688 105.882812 255.964844 C 107.894531 255.875 107.96875 255.800781 108.058594 253.785156 C 108.148438 255.800781 108.222656 255.875 110.238281 255.964844 Z M 110.238281 255.964844 " fill-opacity="1" fill-rule="nonzero"/><path fill="#ffd815" d="M 97.679688 253.414062 C 95.667969 253.503906 95.59375 253.578125 95.503906 255.589844 C 95.414062 253.578125 95.339844 253.503906 93.324219 253.414062 C 95.339844 253.324219 95.414062 253.25 95.503906 251.238281 C 95.59375 253.25 95.667969 253.324219 97.679688 253.414062 Z M 97.679688 253.414062 " fill-opacity="1" fill-rule="nonzero"/><g fill="#000000" fill-opacity="1"><g transform="translate(89.197329, 354.829136)"><g><path d="M 8.59375 -13.203125 L 8.59375 -10.5625 L 3.96875 -10.5625 L 3.96875 -7.9375 L 8.234375 -7.9375 L 8.234375 -5.296875 L 3.96875 -5.296875 L 3.96875 0 L 0.953125 0 L 0.953125 -13.203125 Z M 8.59375 -13.203125 "/></g></g></g><g fill="#000000" fill-opacity="1"><g transform="translate(97.707236, 354.829136)"><g><path d="M 7.65625 -13.203125 L 12.984375 0 L 9.765625 0 L 8.78125 -2.640625 L 3.765625 -2.640625 L 2.78125 0 L -0.453125 0 L 4.875 -13.203125 Z M 7.765625 -5.28125 L 6.28125 -9.125 L 6.25 -9.125 L 4.78125 -5.28125 Z M 7.765625 -5.28125 "/></g></g></g><g fill="#000000" fill-opacity="1"><g transform="translate(109.736303, 354.829136)"><g><path d="M 7.984375 -2.71875 C 8.441406 -2.71875 8.882812 -2.785156 9.3125 -2.921875 C 9.75 -3.066406 10.066406 -3.203125 10.265625 -3.328125 L 10.578125 -3.53125 L 11.859375 -0.96875 C 11.816406 -0.9375 11.753906 -0.894531 11.671875 -0.84375 C 11.597656 -0.789062 11.425781 -0.691406 11.15625 -0.546875 C 10.882812 -0.410156 10.59375 -0.285156 10.28125 -0.171875 C 9.976562 -0.0664062 9.570312 0.0234375 9.0625 0.109375 C 8.5625 0.191406 8.046875 0.234375 7.515625 0.234375 C 6.296875 0.234375 5.132812 -0.0625 4.03125 -0.65625 C 2.9375 -1.257812 2.050781 -2.085938 1.375 -3.140625 C 0.707031 -4.203125 0.375 -5.347656 0.375 -6.578125 C 0.375 -7.503906 0.566406 -8.394531 0.953125 -9.25 C 1.347656 -10.101562 1.875 -10.832031 2.53125 -11.4375 C 3.1875 -12.050781 3.953125 -12.535156 4.828125 -12.890625 C 5.703125 -13.253906 6.597656 -13.4375 7.515625 -13.4375 C 8.367188 -13.4375 9.15625 -13.332031 9.875 -13.125 C 10.59375 -12.925781 11.101562 -12.726562 11.40625 -12.53125 L 11.859375 -12.21875 L 10.578125 -9.65625 C 10.503906 -9.726562 10.390625 -9.804688 10.234375 -9.890625 C 10.085938 -9.984375 9.789062 -10.101562 9.34375 -10.25 C 8.894531 -10.40625 8.441406 -10.484375 7.984375 -10.484375 C 7.253906 -10.484375 6.601562 -10.363281 6.03125 -10.125 C 5.457031 -9.894531 5 -9.585938 4.65625 -9.203125 C 4.320312 -8.816406 4.066406 -8.398438 3.890625 -7.953125 C 3.710938 -7.515625 3.625 -7.066406 3.625 -6.609375 C 3.625 -5.609375 4 -4.707031 4.75 -3.90625 C 5.507812 -3.113281 6.585938 -2.71875 7.984375 -2.71875 Z M 7.984375 -2.71875 "/></g></g></g><g fill="#000000" fill-opacity="1"><g transform="translate(121.781415, 354.829136)"><g><path d="M 8.515625 -13.203125 L 8.515625 -10.5625 L 3.96875 -10.5625 L 3.96875 -7.9375 L 8.3125 -7.9375 L 8.3125 -5.296875 L 3.96875 -5.296875 L 3.96875 -2.640625 L 8.515625 -2.640625 L 8.515625 0 L 0.953125 0 L 0.953125 -13.203125 Z M 8.515625 -13.203125 "/></g></g></g><g fill="#000000" fill-opacity="1"><g transform="translate(131.059185, 354.829136)"><g/></g></g><g fill="#000000" fill-opacity="1"><g transform="translate(135.106182, 354.829136)"><g><path d="M 5.828125 -13.4375 C 6.535156 -13.4375 7.226562 -13.332031 7.90625 -13.125 C 8.59375 -12.914062 9.101562 -12.710938 9.4375 -12.515625 L 9.921875 -12.1875 L 8.703125 -9.796875 C 8.609375 -9.859375 8.472656 -9.9375 8.296875 -10.03125 C 8.128906 -10.132812 7.8125 -10.269531 7.34375 -10.4375 C 6.875 -10.613281 6.4375 -10.703125 6.03125 -10.703125 C 5.53125 -10.703125 5.144531 -10.59375 4.875 -10.375 C 4.601562 -10.164062 4.46875 -9.878906 4.46875 -9.515625 C 4.46875 -9.335938 4.53125 -9.171875 4.65625 -9.015625 C 4.78125 -8.859375 5 -8.691406 5.3125 -8.515625 C 5.625 -8.335938 5.894531 -8.195312 6.125 -8.09375 C 6.363281 -7.988281 6.726562 -7.828125 7.21875 -7.609375 C 8.070312 -7.253906 8.796875 -6.765625 9.390625 -6.140625 C 9.992188 -5.515625 10.296875 -4.804688 10.296875 -4.015625 C 10.296875 -3.253906 10.160156 -2.59375 9.890625 -2.03125 C 9.617188 -1.46875 9.242188 -1.023438 8.765625 -0.703125 C 8.296875 -0.378906 7.773438 -0.144531 7.203125 0 C 6.628906 0.15625 6.003906 0.234375 5.328125 0.234375 C 4.753906 0.234375 4.1875 0.175781 3.625 0.0625 C 3.070312 -0.0507812 2.609375 -0.195312 2.234375 -0.375 C 1.867188 -0.550781 1.535156 -0.722656 1.234375 -0.890625 C 0.929688 -1.066406 0.710938 -1.210938 0.578125 -1.328125 L 0.375 -1.5 L 1.875 -4.03125 C 2 -3.925781 2.171875 -3.789062 2.390625 -3.625 C 2.617188 -3.457031 3.019531 -3.234375 3.59375 -2.953125 C 4.164062 -2.679688 4.671875 -2.546875 5.109375 -2.546875 C 6.378906 -2.546875 7.015625 -2.976562 7.015625 -3.84375 C 7.015625 -4.019531 6.96875 -4.1875 6.875 -4.34375 C 6.78125 -4.5 6.617188 -4.65625 6.390625 -4.8125 C 6.160156 -4.96875 5.957031 -5.085938 5.78125 -5.171875 C 5.601562 -5.265625 5.3125 -5.40625 4.90625 -5.59375 C 4.507812 -5.78125 4.21875 -5.921875 4.03125 -6.015625 C 3.226562 -6.410156 2.609375 -6.90625 2.171875 -7.5 C 1.734375 -8.09375 1.515625 -8.726562 1.515625 -9.40625 C 1.515625 -10.59375 1.953125 -11.5625 2.828125 -12.3125 C 3.703125 -13.0625 4.703125 -13.4375 5.828125 -13.4375 Z M 5.828125 -13.4375 "/></g></g></g><g fill="#000000" fill-opacity="1"><g transform="translate(145.855605, 354.829136)"><g><path d="M 3.96875 -5.296875 L 3.96875 0 L 0.953125 0 L 0.953125 -13.203125 L 3.96875 -13.203125 L 3.96875 -7.9375 L 8.21875 -7.9375 L 8.21875 -13.203125 L 11.234375 -13.203125 L 11.234375 0 L 8.21875 0 L 8.21875 -5.296875 Z M 3.96875 -5.296875 "/></g></g></g><g fill="#000000" fill-opacity="1"><g transform="translate(158.044672, 354.829136)"><g><path d="M 7.65625 -13.203125 L 12.984375 0 L 9.765625 0 L 8.78125 -2.640625 L 3.765625 -2.640625 L 2.78125 0 L -0.453125 0 L 4.875 -13.203125 Z M 7.765625 -5.28125 L 6.28125 -9.125 L 6.25 -9.125 L 4.78125 -5.28125 Z M 7.765625 -5.28125 "/></g></g></g><g fill="#000000" fill-opacity="1"><g transform="translate(170.585656, 354.829136)"><g><path d="M 0.953125 -13.203125 L 5.78125 -13.203125 C 7.125 -13.203125 8.207031 -12.851562 9.03125 -12.15625 C 9.863281 -11.46875 10.28125 -10.460938 10.28125 -9.140625 C 10.28125 -7.816406 9.859375 -6.773438 9.015625 -6.015625 C 8.179688 -5.265625 7.101562 -4.890625 5.78125 -4.890625 L 3.96875 -4.890625 L 3.96875 0 L 0.953125 0 Z M 3.96875 -7.296875 L 4.8125 -7.296875 C 5.488281 -7.296875 6.039062 -7.429688 6.46875 -7.703125 C 6.90625 -7.972656 7.125 -8.421875 7.125 -9.046875 C 7.125 -9.671875 6.90625 -10.117188 6.46875 -10.390625 C 6.039062 -10.660156 5.488281 -10.796875 4.8125 -10.796875 L 3.96875 -10.796875 Z M 3.96875 -7.296875 "/></g></g></g><g fill="#000000" fill-opacity="1"><g transform="translate(181.239098, 354.829136)"><g><path d="M 8.515625 -13.203125 L 8.515625 -10.5625 L 3.96875 -10.5625 L 3.96875 -7.9375 L 8.3125 -7.9375 L 8.3125 -5.296875 L 3.96875 -5.296875 L 3.96875 -2.640625 L 8.515625 -2.640625 L 8.515625 0 L 0.953125 0 L 0.953125 -13.203125 Z M 8.515625 -13.203125 "/></g></g></g><g fill="#000000" fill-opacity="1"><g transform="translate(190.516868, 354.829136)"><g/></g></g><g fill="#000000" fill-opacity="1"><g transform="translate(194.883819, 354.829136)"><g><path d="M 7.65625 -13.203125 L 12.984375 0 L 9.765625 0 L 8.78125 -2.640625 L 3.765625 -2.640625 L 2.78125 0 L -0.453125 0 L 4.875 -13.203125 Z M 7.765625 -5.28125 L 6.28125 -9.125 L 6.25 -9.125 L 4.78125 -5.28125 Z M 7.765625 -5.28125 "/></g></g></g><g fill="#000000" fill-opacity="1"><g transform="translate(207.424803, 354.829136)"><g><path d="M 3.96875 -8.1875 L 3.96875 0 L 0.953125 0 L 0.953125 -13.203125 L 3.96875 -13.203125 L 9.21875 -5.015625 L 9.25 -5.015625 L 9.25 -13.203125 L 12.25 -13.203125 L 12.25 0 L 9.25 0 L 4 -8.1875 Z M 3.96875 -8.1875 "/></g></g></g><g fill="#000000" fill-opacity="1"><g transform="translate(220.637624, 354.829136)"><g><path d="M 7.65625 -13.203125 L 12.984375 0 L 9.765625 0 L 8.78125 -2.640625 L 3.765625 -2.640625 L 2.78125 0 L -0.453125 0 L 4.875 -13.203125 Z M 7.765625 -5.28125 L 6.28125 -9.125 L 6.25 -9.125 L 4.78125 -5.28125 Z M 7.765625 -5.28125 "/></g></g></g><g fill="#000000" fill-opacity="1"><g transform="translate(233.178609, 354.829136)"><g><path d="M 3.96875 -13.203125 L 3.96875 -2.640625 L 8.515625 -2.640625 L 8.515625 0 L 0.953125 0 L 0.953125 -13.203125 Z M 3.96875 -13.203125 "/></g></g></g><g fill="#000000" fill-opacity="1"><g transform="translate(240.968636, 354.829136)"><g><path d="M -0.484375 -13.203125 L 3.140625 -13.203125 L 5.890625 -8.96875 L 8.640625 -13.203125 L 12.25 -13.203125 L 7.390625 -5.921875 L 7.390625 0 L 4.390625 0 L 4.390625 -5.921875 Z M -0.484375 -13.203125 "/></g></g></g><g fill="#000000" fill-opacity="1"><g transform="translate(252.741813, 354.829136)"><g><path d="M 12.046875 -13.203125 L 5.5 -2.640625 L 11.609375 -2.640625 L 11.609375 0 L 0.25 0 L 6.78125 -10.5625 L 1.1875 -10.5625 L 1.1875 -13.203125 Z M 12.046875 -13.203125 "/></g></g></g><g fill="#000000" fill-opacity="1"><g transform="translate(265.042861, 354.829136)"><g><path d="M 8.515625 -13.203125 L 8.515625 -10.5625 L 3.96875 -10.5625 L 3.96875 -7.9375 L 8.3125 -7.9375 L 8.3125 -5.296875 L 3.96875 -5.296875 L 3.96875 -2.640625 L 8.515625 -2.640625 L 8.515625 0 L 0.953125 0 L 0.953125 -13.203125 Z M 8.515625 -13.203125 "/></g></g></g><g fill="#000000" fill-opacity="1"><g transform="translate(274.320631, 354.829136)"><g><path d="M 0.953125 -13.203125 L 5.6875 -13.203125 C 6.945312 -13.203125 7.976562 -12.863281 8.78125 -12.1875 C 9.582031 -11.507812 9.984375 -10.539062 9.984375 -9.28125 C 9.984375 -8.3125 9.738281 -7.5 9.25 -6.84375 C 8.769531 -6.1875 8.113281 -5.722656 7.28125 -5.453125 L 11.828125 0 L 8 0 L 3.96875 -5.21875 L 3.96875 0 L 0.953125 0 Z M 3.96875 -7.34375 L 4.3125 -7.34375 C 4.59375 -7.34375 4.828125 -7.347656 5.015625 -7.359375 C 5.210938 -7.367188 5.429688 -7.40625 5.671875 -7.46875 C 5.921875 -7.53125 6.117188 -7.617188 6.265625 -7.734375 C 6.421875 -7.859375 6.550781 -8.03125 6.65625 -8.25 C 6.757812 -8.476562 6.8125 -8.75 6.8125 -9.0625 C 6.8125 -9.382812 6.757812 -9.65625 6.65625 -9.875 C 6.550781 -10.101562 6.421875 -10.273438 6.265625 -10.390625 C 6.117188 -10.515625 5.921875 -10.609375 5.671875 -10.671875 C 5.429688 -10.734375 5.210938 -10.769531 5.015625 -10.78125 C 4.828125 -10.789062 4.59375 -10.796875 4.3125 -10.796875 L 3.96875 -10.796875 Z M 3.96875 -7.34375 "/></g></g></g></svg>